Coordinates
version=1
nRows=19
nColumns=63
inDegrees=yes

Units are S.I. units (second, meters, Newtons, ...)
If the header above contains a line with 'inDegrees', this indicates whether rotational values are in degrees (yes) or radians (no).

endheader
time	pelvis_tilt	pelvis_list	pelvis_rotation	pelvis_tx	pelvis_ty	pelvis_tz	hip_flexion_r	hip_adduction_r	hip_rotation_r	knee_angle_r	knee_angle_r_beta	ankle_angle_r	subtalar_angle_r	mtp_angle_r	hip_flexion_l	hip_adduction_l	hip_rotation_l	knee_angle_l	knee_angle_l_beta	ankle_angle_l	subtalar_angle_l	mtp_angle_l	L5_S1_Flex_Ext	L5_S1_Lat_Bending	L5_S1_axial_rotation	L4_L5_Flex_Ext	L4_L5_Lat_Bending	L4_L5_axial_rotation	L3_L4_Flex_Ext	L3_L4_Lat_Bending	L3_L4_axial_rotation	L2_L3_Flex_Ext	L2_L3_Lat_Bending	L2_L3_axial_rotation	L1_L2_Flex_Ext	L1_L2_Lat_Bending	L1_L2_axial_rotation	L1_T12_Flex_Ext	L1_T12_Lat_Bending	L1_T12_axial_rotation	Abs_r3	Abs_r2	Abs_r1	Abs_t1	Abs_t2	neck_flexion	neck_bending	neck_rotation	arm_flex_r	arm_add_r	arm_rot_r	elbow_flex_r	pro_sup_r	wrist_flex_r	wrist_dev_r	arm_flex_l	arm_add_l	arm_rot_l	elbow_flex_l	pro_sup_l	wrist_flex_l	wrist_dev_l
1.542373	13.085249	-16.104881	106.194627	0.150906	0.855363	0.505241	28.453594	-2.088658	-38.578896	28.272370	0.493446	30.534589	18.339145	0.000000	37.883920	-4.378785	7.103112	34.935477	0.609739	22.648856	-6.144511	0.000000	-0.153530	1.190289	1.252556	-0.285120	1.583085	1.330841	-0.252234	2.894070	1.330841	-0.175469	2.894070	1.095986	-0.142568	2.427238	1.017702	-0.087727	1.843758	0.939417	-1.096648	13.464792	6.966340	0.000000	0.000000	10.034040	-1.621670	-2.038862	-4.042433	-18.738870	23.116164	44.004777	87.870398	3.821635	29.360592	53.615216	2.177789	32.655356	142.447619	86.944024	-20.466039	22.203130
1.559322	13.047813	-16.037504	106.100404	0.150949	0.856134	0.505046	28.323393	-2.016207	-38.521301	28.117674	0.490746	30.330639	18.338210	0.000000	37.741120	-4.395302	7.073661	34.793614	0.607263	22.728871	-6.015260	0.000000	-0.145656	1.183024	1.297807	-0.270497	1.573422	1.378920	-0.239298	2.876405	1.378920	-0.166470	2.876405	1.135581	-0.135256	2.412422	1.054468	-0.083228	1.832504	0.973355	-1.040403	13.382604	7.218014	0.000000	0.000000	9.682228	-1.734402	-2.431197	-4.410263	-18.774713	21.825370	44.753299	87.987363	3.922975	29.383194	52.880424	2.584024	32.506373	142.229997	86.838635	-20.256742	21.836737
1.576271	13.035482	-15.920089	106.021478	0.150902	0.857098	0.504536	28.099331	-1.887845	-38.476910	27.898809	0.486926	30.098818	18.341199	0.000000	37.494982	-4.451660	7.045335	34.566670	0.603302	22.855428	-5.795248	0.000000	-0.136633	1.182681	1.331021	-0.253741	1.572966	1.414210	-0.224475	2.875571	1.414210	-0.156158	2.875571	1.164643	-0.126878	2.411723	1.081454	-0.078072	1.831973	0.998266	-0.975957	13.378725	7.402738	0.000000	0.000000	9.238118	-1.918220	-2.703065	-4.874116	-18.785356	20.196297	45.733522	88.139908	3.666021	29.021650	51.967711	3.013321	32.292003	142.039584	86.782486	-19.986157	21.343947
1.593220	13.037484	-15.750311	105.960502	0.150794	0.858258	0.503669	27.773057	-1.711758	-38.453493	27.615482	0.481981	29.846875	18.350466	0.000000	37.130713	-4.541917	7.013426	34.239614	0.597594	23.005515	-5.487040	0.000000	-0.128146	1.188056	1.347517	-0.237980	1.580114	1.431737	-0.210531	2.888639	1.431737	-0.146458	2.888639	1.179078	-0.118996	2.422683	1.094858	-0.073223	1.840298	1.010638	-0.915334	13.439525	7.494488	0.000000	0.000000	8.729874	-2.172212	-2.809334	-5.417452	-18.737068	18.249443	46.931663	88.309324	3.074771	28.221374	50.868074	3.433005	32.000549	141.898978	86.789107	-19.654081	20.752381
1.610169	13.053309	-15.545600	105.894659	0.150635	0.859578	0.502436	27.367848	-1.488267	-38.420443	27.278222	0.476095	29.583193	18.364486	0.000000	36.667413	-4.670455	6.962720	33.827371	0.590399	23.176692	-5.098428	0.000000	-0.118992	1.198435	1.350568	-0.220979	1.593918	1.434978	-0.195491	2.913874	1.434978	-0.135995	2.913874	1.181747	-0.110496	2.443848	1.097336	-0.067992	1.856375	1.012926	-0.849945	13.556933	7.511453	0.000000	0.000000	8.220096	-2.506417	-2.754998	-6.054511	-18.634090	16.019016	48.404200	88.391246	2.227804	27.107555	49.561059	3.845274	31.608522	141.807026	86.861679	-19.198530	20.034067
1.627119	13.073094	-15.305128	105.824211	0.150438	0.861057	0.500799	26.877692	-1.223616	-38.372513	26.883787	0.469211	29.317584	18.383165	0.000000	36.094168	-4.829131	6.893325	33.321921	0.581577	23.360249	-4.628962	0.000000	-0.109930	1.211409	1.337220	-0.204151	1.611174	1.420796	-0.180604	2.945419	1.420796	-0.125639	2.945419	1.170068	-0.102081	2.470305	1.086491	-0.062814	1.876472	1.002915	-0.785220	13.703699	7.437218	0.000000	0.000000	7.745463	-2.881491	-2.546201	-6.802594	-18.460262	13.546190	50.204587	88.323059	1.175647	25.748599	48.049036	4.238575	31.099428	141.762030	86.989968	-18.624535	19.227184
1.644068	13.093667	-15.030839	105.743781	0.150199	0.862678	0.498748	26.303023	-0.920335	-38.297729	26.433470	0.461351	29.057373	18.407472	0.000000	35.412059	-5.011892	6.811117	32.731266	0.571268	23.554116	-4.109785	0.000000	-0.100663	1.225180	1.308324	-0.186941	1.629489	1.390094	-0.165379	2.978902	1.390094	-0.115048	2.978902	1.144784	-0.093476	2.498386	1.063013	-0.057519	1.897803	0.981243	-0.719027	13.859477	7.276506	0.000000	0.000000	7.331140	-3.254487	-2.241331	-7.692657	-18.225186	10.859969	52.415171	88.119458	-0.050047	24.230266	46.356251	4.613030	30.462687	141.739734	87.163585	-17.950061	18.358188
1.661017	13.116845	-14.724963	105.660594	0.149900	0.864425	0.496294	25.646356	-0.584106	-38.200886	25.929743	0.452559	28.800654	18.435764	0.000000	34.629391	-5.213594	6.724366	32.066768	0.559671	23.761216	-3.545662	0.000000	-0.090252	1.238686	1.262344	-0.167607	1.647452	1.341240	-0.148275	3.011741	1.341240	-0.103149	3.011741	1.104551	-0.083808	2.525928	1.025654	-0.051570	1.918725	0.946758	-0.644663	14.012264	7.020778	0.000000	0.000000	6.977671	-3.565396	-1.871462	-8.741648	-17.954004	8.020892	55.111832	87.878713	-1.425476	22.576135	44.524919	4.965568	29.706860	141.712081	87.364335	-17.282062	17.418506
1.677966	13.133533	-14.381313	105.570934	0.149560	0.866301	0.493439	24.901525	-0.222152	-38.076770	25.379360	0.442953	28.550635	18.469816	0.000000	33.734586	-5.427169	6.627858	31.328854	0.546792	23.976428	-2.967643	0.000000	-0.079919	1.250271	1.200661	-0.148418	1.662861	1.275702	-0.131299	3.039910	1.275702	-0.091340	3.039910	1.050578	-0.074213	2.549553	0.975537	-0.045666	1.936670	0.900495	-0.570855	14.143319	6.677714	0.000000	0.000000	6.688477	-3.779530	-1.460903	-9.946180	-17.648899	5.077507	58.339452	87.774436	-2.923181	20.806321	42.603255	5.286868	28.810640	141.657471	87.594783	-16.617257	16.430699
1.694915	13.125025	-14.027470	105.454756	0.149215	0.868269	0.490219	24.103828	0.139757	-37.907259	24.803554	0.432904	28.311647	18.509021	0.000000	32.750694	-5.634959	6.514964	30.525195	0.532765	24.180633	-2.425128	0.000000	-0.067190	1.257176	1.127160	-0.124778	1.672044	1.197608	-0.110386	3.056698	1.197608	-0.076791	3.056698	0.986265	-0.062392	2.563634	0.915818	-0.038392	1.947366	0.845370	-0.479928	14.221429	6.268928	0.000000	0.000000	6.489258	-3.885135	-1.003405	-11.257542	-17.313847	2.116491	62.123377	87.837866	-4.532839	19.071354	40.653651	5.550984	27.784546	141.575035	87.842376	-16.056937	15.407461
1.711864	13.081419	-13.674902	105.277087	0.148909	0.870321	0.486683	23.272932	0.500851	-37.661238	24.207616	0.422503	28.079893	18.549811	0.000000	31.681124	-5.826498	6.417804	29.652753	0.517538	24.324175	-2.061284	0.000000	-0.052852	1.258424	1.051420	-0.098152	1.673703	1.117134	-0.086831	3.059731	1.117134	-0.060405	3.059731	0.919992	-0.049078	2.566177	0.854279	-0.030200	1.949298	0.788565	-0.377517	14.235540	5.847682	0.000000	0.000000	6.439952	-3.897363	-0.517837	-12.609763	-16.968555	-0.808483	66.445824	87.623233	-6.187748	17.430746	38.744321	5.750295	26.610857	141.447961	88.123097	-15.545525	14.365111
1.728814	12.961425	-13.326104	105.049163	0.148705	0.872468	0.482887	22.403799	0.821278	-37.338084	23.585993	0.411653	27.855246	18.585960	0.000000	30.530356	-5.971255	6.298556	28.721332	0.501282	24.381296	-1.832202	0.000000	-0.040451	1.248546	0.967591	-0.075122	1.660566	1.028065	-0.066458	3.035714	1.028065	-0.046232	3.035714	0.846642	-0.037563	2.546034	0.786167	-0.023114	1.933997	0.725693	-0.288940	14.123797	5.381449	0.000000	0.000000	6.608085	-3.840293	-0.027908	-13.865669	-16.557377	-3.592891	71.240567	87.453706	-7.840085	16.156220	36.954216	5.824759	25.269007	141.305071	88.450316	-15.086442	13.362146
1.745763	12.749799	-12.997814	104.715014	0.148696	0.874677	0.478907	21.537076	1.085516	-36.892238	22.972291	0.400942	27.636962	18.614325	0.000000	29.310590	-6.058268	6.145099	27.729269	0.483967	24.322313	-1.812936	0.000000	-0.028481	1.225001	0.892169	-0.052892	1.629251	0.947929	-0.046791	2.978467	0.947929	-0.032551	2.978467	0.780648	-0.026447	2.498022	0.724887	-0.016274	1.897526	0.669127	-0.203437	13.857454	4.961975	0.000000	0.000000	7.001568	-3.674870	0.416234	-14.946456	-16.095285	-6.121692	76.432817	86.542623	-9.458549	15.175849	35.361999	5.758438	23.795937	141.115027	88.715099	-14.673119	12.345464
1.762712	12.446914	-12.687779	104.313847	0.148914	0.876929	0.474858	20.675763	1.277985	-36.378820	22.373800	0.390496	27.422459	18.637665	0.000000	28.058152	-6.075828	5.976324	26.720854	0.466367	24.136623	-1.967410	0.000000	-0.017445	1.186625	0.815455	-0.032398	1.578211	0.866421	-0.028661	2.885159	0.866421	-0.019938	2.885159	0.713524	-0.016200	2.419765	0.662558	-0.009968	1.838082	0.611592	-0.124610	13.423336	4.535319	0.000000	0.000000	7.596652	-3.375759	0.777938	-15.688992	-15.573653	-8.173800	81.899231	84.856884	-11.012668	14.632024	34.034036	5.506645	22.212690	140.918090	88.908992	-14.390884	11.454864
1.779661	12.047757	-12.371134	103.839003	0.149339	0.879250	0.470815	19.799254	1.391684	-35.795333	21.784738	0.380215	27.206040	18.656141	0.000000	26.747661	-6.015983	5.777465	25.675394	0.448120	23.825663	-2.253525	0.000000	-0.008367	1.132547	0.746231	-0.015538	1.506287	0.792870	-0.013746	2.753674	0.792870	-0.009563	2.753674	0.652952	-0.007770	2.309489	0.606313	-0.004781	1.754315	0.559673	-0.059765	12.811596	4.150313	0.000000	0.000000	8.316253	-2.890313	0.968278	-16.021903	-15.010526	-9.669104	87.529948	81.741972	-12.337638	14.395264	32.972263	5.089425	20.587431	140.670419	89.002476	-14.188406	10.571854
1.796610	11.555773	-12.038998	103.288338	0.150003	0.881624	0.466918	18.919042	1.418202	-35.146755	21.226564	0.370473	26.989578	18.667625	0.000000	25.400978	-5.874747	5.543051	24.624062	0.429771	23.396914	-2.644558	0.000000	-0.000788	1.062162	0.685348	-0.001464	1.412676	0.728183	-0.001295	2.582542	0.728183	-0.000901	2.582542	0.599680	-0.000732	2.165962	0.556845	-0.000450	1.645290	0.514011	-0.005631	12.015395	3.811702	0.000000	0.000000	9.074312	-2.168580	0.932286	-15.824884	-14.423607	-10.488672	93.195561	77.859044	-13.467746	14.550434	32.207165	4.495415	19.002370	140.357633	88.895489	-14.132249	9.611577
1.813559	10.974064	-11.681152	102.655594	0.150900	0.884042	0.463259	18.038690	1.354967	-34.429298	20.714422	0.361535	26.774734	18.670278	0.000000	24.018005	-5.650366	5.281956	23.570832	0.411389	22.862238	-3.141635	0.000000	0.005937	0.975403	0.630367	0.011026	1.297286	0.669765	0.009754	2.371594	0.669765	0.006786	2.371594	0.551571	0.005513	1.989041	0.512173	0.003392	1.510899	0.472775	0.042408	11.033951	3.505912	0.000000	0.000000	9.736146	-1.165505	0.634215	-14.995114	-13.846578	-10.630950	98.731524	74.498583	-14.248707	15.038222	31.730038	3.730178	17.493869	139.986416	88.609387	-14.191673	8.532424
1.830508	10.356187	-11.277550	101.951184	0.151958	0.886441	0.459944	17.151795	1.243621	-33.667747	20.246998	0.353377	26.559646	18.666698	0.000000	22.627153	-5.386322	4.995107	22.569440	0.393911	22.263728	-3.700859	0.000000	0.011173	0.879970	0.586556	0.020750	1.170359	0.623215	0.018356	2.139558	0.623215	0.012770	2.139558	0.513236	0.010375	1.794434	0.476576	0.006384	1.363073	0.439917	0.079809	9.954391	3.262246	0.000000	0.000000	10.224727	-0.002673	-0.024585	-13.546297	-13.332378	-10.345742	104.084865	71.851864	-14.666858	15.703243	31.543119	2.857878	16.092389	139.556969	88.194764	-14.354129	7.245562
1.847458	9.715937	-10.833493	101.186111	0.153095	0.888770	0.456988	16.271791	1.086183	-32.865839	19.842680	0.346320	26.354516	18.661575	0.000000	21.238287	-5.091305	4.697390	21.622409	0.377382	21.643544	-4.305027	0.000000	0.016345	0.778508	0.549350	0.030353	1.035415	0.583685	0.026852	1.892863	0.583685	0.018680	1.892863	0.480682	0.015178	1.587533	0.446347	0.009339	1.205908	0.412013	0.116748	8.806633	3.055322	0.000000	0.000000	10.430958	1.334825	-1.000924	-11.455571	-12.934553	-9.734239	109.155194	69.940191	-14.806229	16.401516	31.636709	1.893257	14.823164	139.125526	87.690274	-14.595082	5.798368
